<mxfile host="app.diagrams.net" agent="Mozilla/5.0 (Macintosh; Intel Mac OS X 10_15_7) AppleWebKit/537.36 (KHTML, like Gecko) Chrome/131.0.0.0 Safari/537.36" version="26.0.2">
  <diagram name="Page-1" id="eemZW4yxgCquXolbz5AP">
    <mxGraphModel dx="836" dy="476" grid="1" gridSize="10" guides="1" tooltips="1" connect="1" arrows="1" fold="1" page="1" pageScale="1" pageWidth="1100" pageHeight="850" math="0" shadow="0">
      <root>
        <mxCell id="0" />
        <mxCell id="1" parent="0" />
        <mxCell id="qB315NzllFkGqwOsiit4-1" value="&lt;font style=&quot;font-size: 14px;&quot; face=&quot;Garamond&quot;&gt;Solution Designer&lt;/font&gt;" style="swimlane;html=1;startSize=20;fontStyle=0;collapsible=0;horizontal=0;swimlaneLine=1;swimlaneFillColor=#ffffff;strokeWidth=2;whiteSpace=wrap;" parent="1" vertex="1">
          <mxGeometry x="191" y="120" width="600" height="270" as="geometry" />
        </mxCell>
        <mxCell id="qB315NzllFkGqwOsiit4-33" style="edgeStyle=orthogonalEdgeStyle;rounded=0;orthogonalLoop=1;jettySize=auto;html=1;exitX=1;exitY=0.5;exitDx=0;exitDy=0;exitPerimeter=0;entryX=0;entryY=0.5;entryDx=0;entryDy=0;" parent="qB315NzllFkGqwOsiit4-1" source="qB315NzllFkGqwOsiit4-2" target="qB315NzllFkGqwOsiit4-14" edge="1">
          <mxGeometry relative="1" as="geometry" />
        </mxCell>
        <mxCell id="qB315NzllFkGqwOsiit4-2" value="" style="points=[[0.145,0.145,0],[0.5,0,0],[0.855,0.145,0],[1,0.5,0],[0.855,0.855,0],[0.5,1,0],[0.145,0.855,0],[0,0.5,0]];shape=mxgraph.bpmn.event;html=1;verticalLabelPosition=bottom;labelBackgroundColor=#ffffff;verticalAlign=top;align=center;perimeter=ellipsePerimeter;outlineConnect=0;aspect=fixed;outline=standard;symbol=general;" parent="qB315NzllFkGqwOsiit4-1" vertex="1">
          <mxGeometry x="40" y="30" width="40" height="40" as="geometry" />
        </mxCell>
        <mxCell id="qB315NzllFkGqwOsiit4-14" value="&lt;span style=&quot;font-size: 14px;&quot;&gt;Generating initial Compatibility Graph&lt;/span&gt;" style="rounded=1;whiteSpace=wrap;html=1;fontFamily=Garamond;" parent="qB315NzllFkGqwOsiit4-1" vertex="1">
          <mxGeometry x="120" y="20" width="120" height="60" as="geometry" />
        </mxCell>
        <mxCell id="qB315NzllFkGqwOsiit4-18" value="&lt;font style=&quot;font-size: 14px;&quot;&gt;Refining compatibility paths&lt;/font&gt;" style="rounded=1;whiteSpace=wrap;html=1;fontFamily=Garamond;" parent="qB315NzllFkGqwOsiit4-1" vertex="1">
          <mxGeometry x="280" y="20" width="120" height="60" as="geometry" />
        </mxCell>
        <mxCell id="qB315NzllFkGqwOsiit4-15" style="edgeStyle=orthogonalEdgeStyle;rounded=0;orthogonalLoop=1;jettySize=auto;html=1;entryX=0;entryY=0.5;entryDx=0;entryDy=0;fontFamily=Garamond;exitX=1;exitY=0.5;exitDx=0;exitDy=0;" parent="qB315NzllFkGqwOsiit4-1" source="qB315NzllFkGqwOsiit4-14" target="qB315NzllFkGqwOsiit4-18" edge="1">
          <mxGeometry relative="1" as="geometry">
            <mxPoint x="304.78" y="332.1" as="sourcePoint" />
          </mxGeometry>
        </mxCell>
        <mxCell id="qB315NzllFkGqwOsiit4-27" value="&lt;font style=&quot;font-size: 14px;&quot;&gt;Ranking composition patterns&amp;nbsp;&lt;/font&gt;" style="rounded=1;whiteSpace=wrap;html=1;fontFamily=Garamond;" parent="qB315NzllFkGqwOsiit4-1" vertex="1">
          <mxGeometry x="441" y="20" width="120" height="60" as="geometry" />
        </mxCell>
        <mxCell id="qB315NzllFkGqwOsiit4-17" style="edgeStyle=orthogonalEdgeStyle;rounded=0;orthogonalLoop=1;jettySize=auto;html=1;exitX=1;exitY=0.5;exitDx=0;exitDy=0;fontFamily=Garamond;" parent="qB315NzllFkGqwOsiit4-1" source="qB315NzllFkGqwOsiit4-18" edge="1">
          <mxGeometry relative="1" as="geometry">
            <mxPoint x="440" y="50" as="targetPoint" />
          </mxGeometry>
        </mxCell>
        <mxCell id="qB315NzllFkGqwOsiit4-35" value="&lt;span style=&quot;font-family: Garamond; font-size: 14px;&quot;&gt;API instances&lt;/span&gt;" style="shape=mxgraph.bpmn.data;labelPosition=center;verticalLabelPosition=bottom;align=center;verticalAlign=top;size=15;html=1;bpmnTransferType=input;isCollection=1;" parent="qB315NzllFkGqwOsiit4-1" vertex="1">
          <mxGeometry x="120" y="115" width="40" height="40" as="geometry" />
        </mxCell>
        <mxCell id="qB315NzllFkGqwOsiit4-29" value="&lt;span style=&quot;text-align: start;&quot;&gt;&lt;font style=&quot;font-size: 14px;&quot;&gt;Generating final Compatiblity Graph&lt;/font&gt;&lt;/span&gt;" style="rounded=1;whiteSpace=wrap;html=1;fontFamily=Garamond;" parent="qB315NzllFkGqwOsiit4-1" vertex="1">
          <mxGeometry x="441" y="130" width="120" height="60" as="geometry" />
        </mxCell>
        <mxCell id="qB315NzllFkGqwOsiit4-44" value="&lt;font style=&quot;font-size: 13px;&quot; face=&quot;Garamond&quot;&gt;Comparability Graph&lt;/font&gt;" style="shape=mxgraph.bpmn.data;labelPosition=center;verticalLabelPosition=bottom;align=center;verticalAlign=top;size=15;html=1;bpmnTransferType=output;" parent="qB315NzllFkGqwOsiit4-1" vertex="1">
          <mxGeometry x="280" y="190" width="40" height="40" as="geometry" />
        </mxCell>
        <mxCell id="qB315NzllFkGqwOsiit4-45" value="" style="edgeStyle=elbowEdgeStyle;fontSize=12;html=1;endFill=0;startFill=0;endSize=6;startSize=6;dashed=1;dashPattern=1 4;endArrow=openThin;startArrow=none;rounded=0;exitX=0;exitY=0.75;exitDx=0;exitDy=0;entryX=0;entryY=0;entryDx=40;entryDy=27.5;entryPerimeter=0;" parent="qB315NzllFkGqwOsiit4-1" source="qB315NzllFkGqwOsiit4-29" target="qB315NzllFkGqwOsiit4-44" edge="1">
          <mxGeometry width="160" relative="1" as="geometry">
            <mxPoint x="210" y="260" as="sourcePoint" />
            <mxPoint x="381" y="220" as="targetPoint" />
            <Array as="points">
              <mxPoint x="381" y="210" />
            </Array>
          </mxGeometry>
        </mxCell>
        <mxCell id="qB315NzllFkGqwOsiit4-46" value="" style="edgeStyle=elbowEdgeStyle;fontSize=12;html=1;endFill=0;startFill=0;endSize=6;startSize=6;dashed=1;dashPattern=1 4;endArrow=openThin;startArrow=none;rounded=0;entryX=0;entryY=0.5;entryDx=0;entryDy=0;" parent="qB315NzllFkGqwOsiit4-1" source="qB315NzllFkGqwOsiit4-34" target="qB315NzllFkGqwOsiit4-29" edge="1">
          <mxGeometry width="160" relative="1" as="geometry">
            <mxPoint x="210" y="160" as="sourcePoint" />
            <mxPoint x="280" y="160" as="targetPoint" />
          </mxGeometry>
        </mxCell>
        <mxCell id="qB315NzllFkGqwOsiit4-47" value="" style="edgeStyle=elbowEdgeStyle;fontSize=12;html=1;endFill=0;startFill=0;endSize=6;startSize=6;dashed=1;dashPattern=1 4;endArrow=openThin;startArrow=none;rounded=0;exitX=0.5;exitY=1;exitDx=0;exitDy=0;entryX=0;entryY=0.5;entryDx=0;entryDy=0;entryPerimeter=0;" parent="qB315NzllFkGqwOsiit4-1" source="qB315NzllFkGqwOsiit4-14" target="qB315NzllFkGqwOsiit4-34" edge="1">
          <mxGeometry width="160" relative="1" as="geometry">
            <mxPoint x="155" y="380" as="sourcePoint" />
            <mxPoint x="315" y="380" as="targetPoint" />
            <Array as="points">
              <mxPoint x="210" y="110" />
            </Array>
          </mxGeometry>
        </mxCell>
        <mxCell id="qB315NzllFkGqwOsiit4-48" value="" style="edgeStyle=elbowEdgeStyle;fontSize=12;html=1;endFill=0;startFill=0;endSize=6;startSize=6;dashed=1;dashPattern=1 4;endArrow=openThin;startArrow=none;rounded=0;exitX=0;exitY=0;exitDx=32.5;exitDy=7.5;exitPerimeter=0;" parent="qB315NzllFkGqwOsiit4-1" source="qB315NzllFkGqwOsiit4-35" edge="1">
          <mxGeometry width="160" relative="1" as="geometry">
            <mxPoint x="140" y="350" as="sourcePoint" />
            <mxPoint x="150" y="80" as="targetPoint" />
            <Array as="points">
              <mxPoint x="150" y="110" />
            </Array>
          </mxGeometry>
        </mxCell>
        <mxCell id="qB315NzllFkGqwOsiit4-34" value="&lt;font style=&quot;font-size: 13px;&quot; face=&quot;Garamond&quot;&gt;Initial graph&lt;/font&gt;" style="shape=mxgraph.bpmn.data;labelPosition=center;verticalLabelPosition=bottom;align=center;verticalAlign=top;size=15;html=1;bpmnTransferType=output;" parent="qB315NzllFkGqwOsiit4-1" vertex="1">
          <mxGeometry x="280" y="115" width="40" height="40" as="geometry" />
        </mxCell>
        <mxCell id="qB315NzllFkGqwOsiit4-3" value="" style="points=[[0.145,0.145,0],[0.5,0,0],[0.855,0.145,0],[1,0.5,0],[0.855,0.855,0],[0.5,1,0],[0.145,0.855,0],[0,0.5,0]];shape=mxgraph.bpmn.event;html=1;verticalLabelPosition=bottom;labelBackgroundColor=#ffffff;verticalAlign=top;align=center;perimeter=ellipsePerimeter;outlineConnect=0;aspect=fixed;outline=end;symbol=terminate2;" parent="qB315NzllFkGqwOsiit4-1" vertex="1">
          <mxGeometry x="481" y="220" width="40" height="40" as="geometry" />
        </mxCell>
        <mxCell id="fl5CKmDmrpUKvF2OfwkG-1" style="edgeStyle=orthogonalEdgeStyle;rounded=0;orthogonalLoop=1;jettySize=auto;html=1;exitX=0.5;exitY=1;exitDx=0;exitDy=0;entryX=0.5;entryY=0;entryDx=0;entryDy=0;" edge="1" parent="qB315NzllFkGqwOsiit4-1" source="qB315NzllFkGqwOsiit4-27" target="qB315NzllFkGqwOsiit4-29">
          <mxGeometry relative="1" as="geometry" />
        </mxCell>
        <mxCell id="fl5CKmDmrpUKvF2OfwkG-2" style="edgeStyle=orthogonalEdgeStyle;rounded=0;orthogonalLoop=1;jettySize=auto;html=1;entryX=0.5;entryY=0;entryDx=0;entryDy=0;entryPerimeter=0;" edge="1" parent="qB315NzllFkGqwOsiit4-1" source="qB315NzllFkGqwOsiit4-29" target="qB315NzllFkGqwOsiit4-3">
          <mxGeometry relative="1" as="geometry" />
        </mxCell>
      </root>
    </mxGraphModel>
  </diagram>
</mxfile>
